<svg xmlns="http://www.w3.org/2000/svg" viewBox="0 0 128 64">
  <defs>
    <mask id="__u__m">
      <rect width="128" height="64" fill="#fff"/>
      <ellipse cx="34" cy="18" rx="7" ry="3.5" fill="#000" opacity="0.85" transform="rotate(-20 34 18)"/>
      <ellipse cx="92" cy="48" rx="9" ry="3" fill="#000" opacity="0.75" transform="rotate(14 92 48)"/>
      <ellipse cx="60" cy="55" rx="5" ry="2" fill="#000" opacity="0.6"/>
    </mask>
  </defs>
  <g transform="rotate(-4 64 32)" mask="url(#__u__m)" fill="#f5b93e" opacity="0.92">
    <rect x="8" y="10" width="112" height="44" rx="9" fill="none" stroke="#f5b93e" stroke-width="3.5"/>
    <rect x="14" y="16" width="100" height="32" rx="6" fill="none" stroke="#f5b93e" stroke-width="1.3" opacity="0.7"/>
    <text x="64" y="39.5" text-anchor="middle" font-family="'Space Grotesk', system-ui, sans-serif" font-weight="800" font-size="17" letter-spacing="1.5">VIRAL</text>
    <g transform="translate(103,1) scale(0.8)"><path d="M12,2 c6,3 9,9 8,16 l-4,4 -4,-3 -4,3 -4,-4 C3,11 6,5 12,2 Z" fill="#f5b93e"/><circle cx="12" cy="11" r="3" fill="#fff"/><path d="M8,22 l-2,4 M16,22 l2,4" stroke="#f5b93e" stroke-width="2" stroke-linecap="round"/></g>
  </g>
</svg>
