<svg xmlns="http://www.w3.org/2000/svg" viewBox="0 0 96 96">
  <defs>
    <linearGradient id="__u__bg" x1="0" y1="0" x2="1" y2="1">
      <stop offset="0" stop-color="#c084fc"/><stop offset="1" stop-color="#6b21a8"/>
    </linearGradient>
  </defs>
  <rect x="4" y="4" width="88" height="88" rx="20" fill="url(#__u__bg)"/>
  <rect x="4" y="4" width="88" height="88" rx="20" fill="none" stroke="#ffffff" stroke-width="1.2" opacity="0.25"/>
  <path d="M18,92 a30,26 0 0 1 60,0 Z" fill="#3b1d55"/>
  <path d="M28,92 a20,18 0 0 1 40,0 Z" fill="#7c3aed"/>
  <path d="M40,74 l8,8 8,-8 v-8 H40 Z" fill="#d9a06b"/>
  <path d="M40,70 a16,10 0 0 0 16,0 v-6 H40 Z" fill="#0b0e14" opacity="0.18"/>
  <ellipse cx="48" cy="44" rx="21" ry="23" fill="#d9a06b"/>
  <path d="M26,38 h44 a4,4 0 0 1 0,8 l-4,1 a18,7 0 0 1 -36,0 l-4,-1 a4,4 0 0 1 0,-8 Z" fill="#14161f"/>
  <rect x="30" y="40" width="36" height="4" rx="2" fill="#ffffff" opacity="0.5"/>
  <path d="M36,44 h8 M52,44 h8" stroke="#3ae68f" stroke-width="1.6" opacity="0.7"/>
  <path d="M27,46 q-2,10 4,15" stroke="#14161f" stroke-width="3.4" fill="none" stroke-linecap="round"/>
  <circle cx="34" cy="63" r="3.4" fill="#14161f"/>
  <path d="M42,60 q6,2 12,0" stroke="#8a5a26" stroke-width="2.6" fill="none" stroke-linecap="round"/>
  <path d="M74,60 q4,-4 0,-8 q4,1 5,5 q-1,4 -5,3 Z" fill="#f2e4c9" opacity="0.9"/>
</svg>
