<svg xmlns="http://www.w3.org/2000/svg" viewBox="0 0 96 96">
  <defs>
    <linearGradient id="__u__k" x1="0" y1="0" x2="0" y2="1">
      <stop offset="0" stop-color="#d9a05b"/><stop offset="1" stop-color="#a86a2f"/>
    </linearGradient>
  </defs>
  <g id="burst" fill="none" stroke="#3ae68f" stroke-width="4" stroke-linecap="round" opacity="0.9">
    <path d="M18,26 l-7,-7"/><path d="M48,14 v-9"/><path d="M78,26 l7,-7"/>
  </g>
  <g id="lid">
    <path d="M20,34 L48,22 76,34 62,40 48,34 34,40 Z" fill="#c98d4b"/>
    <path d="M20,34 L34,40 34,50 20,44 Z" fill="#b57f3d"/>
    <path d="M76,34 L62,40 62,50 76,44 Z" fill="#b57f3d"/>
  </g>
  <g id="body">
    <path d="M24,42 L48,52 72,42 72,72 48,82 24,72 Z" fill="url(#__u__k)"/>
    <path d="M48,52 L72,42 72,72 48,82 Z" fill="#0b0e14" opacity="0.18"/>
    <path d="M46,53 h4 v29 h-4 Z" fill="#f2e4c9" opacity="0.85"/>
    <path d="M36,60 l8,3 v5 l-8,-3 Z" fill="#f2e4c9" opacity="0.5"/>
  </g>
  <g id="gloss">
    <path d="M27,45 l16,6.5" stroke="#ffffff" stroke-width="2.6" stroke-linecap="round" opacity="0.35"/>
  </g>
</svg>
