<svg xmlns="http://www.w3.org/2000/svg" viewBox="0 0 96 96">
  <rect x="6" y="6" width="84" height="84" rx="20" fill="#101018"/>
  <rect x="6" y="6" width="84" height="84" rx="20" fill="none" stroke="#ffffff" stroke-width="1" opacity="0.12"/>
  <g transform="translate(3,-2)" fill="#22d3ee" opacity="0.85">
    <path d="M52,24 v30 a12,12 0 1 1 -8,-11.3 v9 a4,4 0 1 0 2,3.4 V24 Z"/>
    <path d="M52,24 c1,7 6,12 13,13 v8 c-5,-0.4 -9,-2 -13,-5 Z"/>
  </g>
  <g transform="translate(-3,2)" fill="#d946ef" opacity="0.85">
    <path d="M52,24 v30 a12,12 0 1 1 -8,-11.3 v9 a4,4 0 1 0 2,3.4 V24 Z"/>
    <path d="M52,24 c1,7 6,12 13,13 v8 c-5,-0.4 -9,-2 -13,-5 Z"/>
  </g>
  <g fill="#f6f8fc">
    <path d="M52,24 v30 a12,12 0 1 1 -8,-11.3 v9 a4,4 0 1 0 2,3.4 V24 Z"/>
    <path d="M52,24 c1,7 6,12 13,13 v8 c-5,-0.4 -9,-2 -13,-5 Z"/>
  </g>
</svg>
