<svg xmlns="http://www.w3.org/2000/svg" viewBox="0 0 96 96">
  <rect x="6" y="6" width="84" height="84" rx="20" fill="#1e3a8a"/>
  <rect x="6" y="6" width="84" height="84" rx="20" fill="none" stroke="#ffffff" stroke-width="1" opacity="0.14"/>
  <g fill="#f2e4c9">
    <path d="M30,70 V38 a12,12 0 0 1 12,-12 h6 v10 h-5 a3,3 0 0 0 -3,3 v7 h8 l-1.6,10 H40 v14 Z"/>
    <path d="M56,44 a9,9 0 0 1 14,0 v3 h4 v7 h-4 v16 h-8 V54 h-4 v-7 h4 Z" opacity="0.85"/>
  </g>
  <g transform="translate(60,60) scale(0.85)">
    <path d="M4,14 h5 V28 H4 a2,2 0 0 1 -2,-2 V16 a2,2 0 0 1 2,-2 Z M11,14 l6,-10 a3,3 0 0 1 3,3 l-1.4,7 h7 a3,3 0 0 1 3,3.6 l-2.4,8 a4,4 0 0 1 -3.8,2.4 H11 Z" fill="#f5b93e"/>
  </g>
</svg>
