<svg xmlns="http://www.w3.org/2000/svg" viewBox="0 0 96 96">
  <circle cx="48" cy="48" r="44" fill="#a21caf"/>
  <circle cx="48" cy="48" r="44" fill="none" stroke="#0b0e14" stroke-width="2" opacity="0.3"/>
  <path d="M20,92 a28,26 0 0 1 56,0 Z" fill="#d946ef"/>
  <circle cx="48" cy="46" r="19" fill="#d9a06b"/>
  <path d="M25,46 a23,23 0 0 1 10,-19 l3,5 a17,17 0 0 0 -7,14 Z" fill="#2b1130"/>
  <path d="M71,46 a23,23 0 0 0 -10,-19 l-3,5 a17,17 0 0 1 7,14 Z" fill="#2b1130"/>
  <rect x="22" y="42" width="9" height="14" rx="4" fill="#2b1130"/>
  <rect x="65" y="42" width="9" height="14" rx="4" fill="#2b1130"/>
  <line x1="48" y1="24" x2="48" y2="12" stroke="#2b1130" stroke-width="3"/>
  <circle cx="48" cy="10" r="3.4" fill="#f5b93e"/>
  <ellipse cx="48" cy="48" rx="9" ry="8" fill="#f2e4c9"/>
  <circle cx="48" cy="48" r="3.6" fill="#0b0e14"/>
</svg>
