<svg xmlns="http://www.w3.org/2000/svg" viewBox="0 0 96 96">
  <defs>
    <linearGradient id="__u__b" x1="0" y1="0" x2="1" y2="1">
      <stop offset="0" stop-color="#f5d34e"/><stop offset="1" stop-color="#c9a227"/>
    </linearGradient>
  </defs>
  <g class="a-shadow"><ellipse cx="48" cy="80" rx="30" ry="6" fill="#0b0e14" opacity="0.22"/></g>
  <g class="a-body">
    <rect x="14" y="34" width="68" height="42" rx="8" fill="#f2e4c9"/>
    <rect x="14" y="34" width="68" height="42" rx="8" fill="#0b0e14" opacity="0.08"/>
    <rect x="20" y="42" width="56" height="27" rx="5" fill="var(--tile-b, #0f766e)"/>
    <g fill="#f2e4c9" opacity="0.55">
      <rect x="26" y="42" width="3" height="27"/><rect x="36" y="42" width="3" height="27"/>
      <rect x="46" y="42" width="3" height="27"/><rect x="56" y="42" width="3" height="27"/>
      <rect x="66" y="42" width="3" height="27"/>
    </g>
    <path d="M20,46 C30,20 66,20 78,38 C68,32 40,28 26,50 Z" fill="url(#__u__b)"/>
    <path d="M74,34 l6,-6 4,4 -5,6 Z" fill="#8a5a26"/>
    <circle cx="72" cy="68" r="7" fill="#f5d34e"/>
    <circle cx="72" cy="68" r="7" fill="none" stroke="#8a5a26" stroke-width="1.4"/>
  </g>
  <g class="a-gloss">
    <path d="M28,36 C38,26 56,25 66,30" stroke="#ffffff" stroke-width="3" stroke-linecap="round" fill="none" opacity="0.35"/>
  </g>
</svg>
