<svg xmlns="http://www.w3.org/2000/svg" viewBox="0 0 96 96">
  <g class="a-shadow"><ellipse cx="48" cy="83" rx="28" ry="5" fill="#0b0e14" opacity="0.22"/></g>
  <g class="a-body">
    <path d="M28,20 L20,38 30,36 Z" fill="var(--tile-b, #92400e)"/>
    <path d="M68,20 L76,38 66,36 Z" fill="var(--tile-b, #92400e)"/>
    <path d="M24,44 a24,22 0 0 1 48,0 v26 a8,8 0 0 1 -8,8 H32 a8,8 0 0 1 -8,-8 Z" fill="var(--tile-a, #fbbf24)"/>
    <path d="M24,58 h48 v12 a8,8 0 0 1 -8,8 H32 a8,8 0 0 1 -8,-8 Z" fill="var(--tile-b, #92400e)" opacity="0.85"/>
    <ellipse cx="48" cy="44" rx="17" ry="15" fill="#0b0e14" opacity="0.45"/>
    <ellipse cx="48" cy="46" rx="13" ry="11" fill="#c98d4b"/>
    <ellipse cx="48" cy="50" rx="7" ry="5.5" fill="#f2e4c9"/>
    <ellipse cx="48" cy="48" rx="3.4" ry="2.6" fill="#0b0e14"/>
    <circle cx="42" cy="43" r="2" fill="#0b0e14"/><circle cx="54" cy="43" r="2" fill="#0b0e14"/>
    <path d="M40,60 v10 M56,60 v10" stroke="#f2e4c9" stroke-width="2.6" stroke-linecap="round"/>
    <circle cx="40" cy="72" r="2" fill="#f2e4c9"/><circle cx="56" cy="72" r="2" fill="#f2e4c9"/>
  </g>
  <g class="a-gloss"><path d="M30,36 a22,20 0 0 1 12,-10" stroke="#ffffff" stroke-width="3" stroke-linecap="round" fill="none" opacity="0.35"/></g>
</svg>
