<svg xmlns="http://www.w3.org/2000/svg" viewBox="0 0 96 96">
  <g class="a-shadow"><ellipse cx="48" cy="82" rx="26" ry="5" fill="#0b0e14" opacity="0.22"/></g>
  <g class="a-body">
    <path d="M48,10 L74,58 H22 Z" fill="#ffffff" opacity="0.13"/>
    <circle cx="36" cy="26" r="2.4" fill="#f2e4c9"/>
    <path d="M58,18 l1.8,4.4 4.4,1.8 -4.4,1.8 -1.8,4.4 -1.8,-4.4 -4.4,-1.8 4.4,-1.8 Z" fill="#f2e4c9"/>
    <circle cx="62" cy="38" r="1.8" fill="#f2e4c9" opacity="0.8"/>
    <path d="M22,62 a26,20 0 0 1 52,0 v8 a4,4 0 0 1 -4,4 H26 a4,4 0 0 1 -4,-4 Z" fill="var(--tile-b, #b45309)"/>
    <path d="M22,62 a26,20 0 0 1 52,0 v3 H22 Z" fill="#0b0e14" opacity="0.18"/>
    <circle cx="48" cy="56" r="11" fill="var(--tile-a, #fdba74)"/>
    <circle cx="48" cy="56" r="6.5" fill="#0b0e14" opacity="0.55"/>
    <circle cx="48" cy="56" r="6.5" fill="none" stroke="#f2e4c9" stroke-width="1.2" opacity="0.6"/>
    <rect x="40" y="72" width="16" height="4" rx="2" fill="#0b0e14" opacity="0.3"/>
  </g>
  <g class="a-gloss">
    <ellipse cx="38" cy="48" rx="8" ry="4" fill="#ffffff" opacity="0.3" transform="rotate(-24 38 48)"/>
    <circle cx="45.5" cy="53.5" r="2" fill="#ffffff" opacity="0.7"/>
  </g>
</svg>
