<svg xmlns="http://www.w3.org/2000/svg" viewBox="0 0 96 96">
  <g class="a-shadow"><ellipse cx="48" cy="84" rx="22" ry="4.5" fill="#0b0e14" opacity="0.22"/></g>
  <g class="a-body">
    <path d="M28,8 L44,30 M68,8 L52,30" stroke="var(--tile-b, #6b21a8)" stroke-width="7" stroke-linecap="round"/>
    <rect x="41" y="26" width="14" height="10" rx="3" fill="var(--tile-b, #6b21a8)"/>
    <rect x="44.5" y="29" width="7" height="4" rx="2" fill="#f2e4c9"/>
    <rect x="30" y="36" width="36" height="46" rx="6" fill="var(--tile-a, #c084fc)"/>
    <rect x="30" y="36" width="36" height="14" rx="6" fill="#ffffff" opacity="0.2"/>
    <circle cx="48" cy="50" r="7" fill="#f2e4c9"/>
    <path d="M48,45 l1.6,3.4 3.6,0.4 -2.7,2.5 0.8,3.6 -3.3,-1.9 -3.3,1.9 0.8,-3.6 -2.7,-2.5 3.6,-0.4 Z" fill="var(--tile-b, #6b21a8)"/>
    <g fill="#0b0e14" opacity="0.7">
      <rect x="36" y="62" width="24" height="3.4" rx="1.7"/>
      <rect x="36" y="68" width="17" height="3.4" rx="1.7"/>
      <rect x="36" y="74" width="21" height="3.4" rx="1.7"/>
    </g>
  </g>
  <g class="a-gloss"><path d="M33,40 l7,-2" stroke="#ffffff" stroke-width="2.6" stroke-linecap="round" opacity="0.4"/></g>
</svg>
