<svg xmlns="http://www.w3.org/2000/svg" viewBox="0 0 96 96">
  <g class="a-shadow"><ellipse cx="48" cy="84" rx="24" ry="5" fill="#0b0e14" opacity="0.22"/></g>
  <g class="a-body">
    <rect x="28" y="10" width="40" height="13" rx="5" fill="#c98d4b"/>
    <rect x="28" y="10" width="40" height="5" rx="2.5" fill="#8a5a26"/>
    <path d="M26,26 h44 v45 a11,11 0 0 1 -11,11 H37 a11,11 0 0 1 -11,-11 Z" fill="#f2e4c9" opacity="0.28"/>
    <path d="M26,26 h44 v45 a11,11 0 0 1 -11,11 H37 a11,11 0 0 1 -11,-11 Z" fill="none" stroke="#f2e4c9" stroke-width="3"/>
    <ellipse cx="48" cy="52" rx="15" ry="10" fill="#ffffff" opacity="0.14"/>
    <g fill="#0b0e14" opacity="0.85">
      <rect x="34" y="45" width="6" height="16" rx="2.4"/>
      <rect x="56" y="45" width="6" height="16" rx="2.4"/>
      <rect x="40" y="50" width="16" height="6" rx="2.4"/>
    </g>
    <path d="M68,20 l9,11" stroke="#f2e4c9" stroke-width="1.8"/>
    <rect x="72" y="29" width="13" height="10" rx="2" fill="#f2e4c9" transform="rotate(8 78 34)"/>
    <path d="M75,33 h7" stroke="#8a5a26" stroke-width="1.6" transform="rotate(8 78 34)"/>
  </g>
  <g class="a-gloss"><path d="M31,32 v34" stroke="#ffffff" stroke-width="3.4" stroke-linecap="round" opacity="0.4"/></g>
</svg>
