<svg xmlns="http://www.w3.org/2000/svg" viewBox="0 0 96 96">
  <g class="a-shadow"><ellipse cx="48" cy="83" rx="26" ry="5" fill="#0b0e14" opacity="0.22"/></g>
  <g class="a-body">
    <path d="M48,16 c9,10 12,16 12,22 a12,12 0 0 1 -24,0 c0,-6 3,-12 12,-22 Z" fill="var(--tile-a, #f5b93e)"/>
    <path d="M48,26 c5,6 7,9 7,13 a7,7 0 0 1 -14,0 c0,-4 2,-7 7,-13 Z" fill="#f2e4c9"/>
    <path d="M43,36 l5,-3.4 5,3.4 -3.4,1.2 3.4,2.4 -5,-1.2 -5,1.2 3.4,-2.4 Z" fill="var(--tile-b, #854d0e)"/>
    <rect x="46.6" y="48" width="2.8" height="6" fill="#0b0e14" opacity="0.6"/>
    <path d="M26,54 h44 v20 a8,8 0 0 1 -8,8 H34 a8,8 0 0 1 -8,-8 Z" fill="var(--tile-b, #854d0e)"/>
    <ellipse cx="48" cy="54" rx="22" ry="5.5" fill="var(--tile-a, #f5b93e)"/>
    <ellipse cx="48" cy="54" rx="17" ry="3.8" fill="#f2e4c9" opacity="0.85"/>
    <rect x="26" y="64" width="44" height="8" fill="var(--tile-a, #f5b93e)" opacity="0.9"/>
    <circle cx="48" cy="68" r="2.6" fill="var(--tile-b, #854d0e)"/>
  </g>
  <g class="a-gloss"><path d="M30,58 v16" stroke="#ffffff" stroke-width="3" stroke-linecap="round" opacity="0.3"/></g>
</svg>
