<svg xmlns="http://www.w3.org/2000/svg" viewBox="0 0 96 96">
  <g class="a-shadow"><ellipse cx="48" cy="80" rx="32" ry="5.5" fill="#0b0e14" opacity="0.22"/></g>
  <g class="a-body">
    <rect x="22" y="24" width="52" height="36" rx="4" fill="var(--tile-b, #6b21a8)"/>
    <rect x="26" y="28" width="44" height="28" rx="2" fill="#0b0e14" opacity="0.6"/>
    <polyline points="30,50 40,44 48,47 62,34" stroke="#f2e4c9" stroke-width="2.4" fill="none" stroke-linecap="round" stroke-linejoin="round"/>
    <circle cx="48" cy="42" r="8" fill="var(--tile-a, #c084fc)"/>
    <path d="M45.6,38 l7,4 -7,4 Z" fill="#0b0e14" opacity="0.8"/>
    <path d="M14,62 h68 l-5,8 a6,6 0 0 1 -5,3 H24 a6,6 0 0 1 -5,-3 Z" fill="var(--tile-a, #c084fc)"/>
    <path d="M14,62 h68 l-1.4,2.4 H15.4 Z" fill="#ffffff" opacity="0.25"/>
    <path d="M58,18 l14,6 -14,6 -14,-6 Z" fill="#0b0e14"/>
    <path d="M58,24 v7" stroke="#0b0e14" stroke-width="2"/>
    <rect x="52" y="27" width="12" height="4" rx="1.4" fill="#0b0e14"/>
    <circle cx="70" cy="27" r="2" fill="#f5b93e"/><path d="M70,27 v6" stroke="#f5b93e" stroke-width="1.6"/>
  </g>
  <g class="a-gloss"><path d="M28,30 l10,-2" stroke="#ffffff" stroke-width="2.4" stroke-linecap="round" opacity="0.3"/></g>
</svg>
