<svg xmlns="http://www.w3.org/2000/svg" viewBox="0 0 96 96">
  <g class="a-shadow"><ellipse cx="48" cy="78" rx="32" ry="5.5" fill="#0b0e14" opacity="0.22"/></g>
  <g class="a-body">
    <path d="M8,42 q40,-14 80,0 v16 q-40,-14 -80,0 Z" fill="var(--tile-a, #f87171)"/>
    <path d="M8,42 q40,-14 80,0 v5 q-40,-14 -80,0 Z" fill="#0b0e14" opacity="0.15"/>
    <rect x="30" y="28" width="36" height="40" rx="9" fill="var(--tile-b, #991b1b)"/>
    <rect x="33.5" y="31.5" width="29" height="33" rx="6.5" fill="none" stroke="#f2e4c9" stroke-width="1.6" opacity="0.5"/>
    <g fill="#f2e4c9">
      <path d="M40,38 h9 v3.4 l-5.4,4.2 h5.4 v3.4 h-9 v-3.4 l5.4,-4.2 h-5.4 Z"/>
      <path d="M46,52 h8 v3 l-4.8,3.8 h4.8 v3 h-8 v-3 l4.8,-3.8 h-4.8 Z" opacity="0.75"/>
    </g>
    <circle cx="36" cy="63" r="1.8" fill="#f2e4c9" opacity="0.6"/><circle cx="60" cy="34" r="1.8" fill="#f2e4c9" opacity="0.6"/>
  </g>
  <g class="a-gloss"><path d="M33,31 q14,-5 30,0" stroke="#ffffff" stroke-width="2.6" stroke-linecap="round" fill="none" opacity="0.3"/></g>
</svg>
