<svg xmlns="http://www.w3.org/2000/svg" viewBox="0 0 96 96">
  <g class="a-shadow"><ellipse cx="48" cy="83" rx="24" ry="5" fill="#0b0e14" opacity="0.22"/></g>
  <g class="a-body">
    <path d="M30,30 a18,14 0 0 1 36,0 l-2,4 H32 Z" fill="var(--tile-b, #9a3412)"/>
    <circle cx="38" cy="24" r="2.6" fill="#f2e4c9"/><circle cx="50" cy="19" r="3.2" fill="#f2e4c9"/><circle cx="59" cy="26" r="2.2" fill="#f2e4c9"/>
    <rect x="44" y="32" width="8" height="8" fill="#f2e4c9"/>
    <path d="M28,40 h40 l-4,34 a8,8 0 0 1 -8,7.9 H40 a8,8 0 0 1 -8,-7.9 Z" fill="var(--tile-a, #fb923c)"/>
    <path d="M29.5,52 h37 l-1,9 h-35 Z" fill="var(--tile-b, #9a3412)"/>
    <path d="M68,46 a9,9 0 0 1 0,18 l-1.4,-5 a4.5,4.5 0 0 0 0,-8 Z" fill="var(--tile-a, #fb923c)"/>
    <path d="M22,14 c3,-3 3,-6 0,-9 M30,16 c3,-3 3,-6 0,-9" stroke="#ffffff" stroke-width="2.4" stroke-linecap="round" fill="none" opacity="0.25"/>
  </g>
  <g class="a-gloss"><path d="M33,44 l-1.6,22" stroke="#ffffff" stroke-width="3.4" stroke-linecap="round" opacity="0.3"/></g>
</svg>
