<svg xmlns="http://www.w3.org/2000/svg" viewBox="0 0 256 256" fill="currentColor"><path d="M60,216 L104,96 L124,116 L152,88 L196,216 Z" opacity="0.2"/><path d="M204,208 L164,92 a12,12 0 0 0-19-6 l-19,16 -14-24 a12,12 0 0 0-21,1 L52,208 a12,12 0 0 0 11,17 h130 a12,12 0 0 0 11-17 Z M128,204 a14,14 0 1 1 0.01,0 Z M96,180 a10,10 0 1 1 0.01,0 Z M162,184 a10,10 0 1 1 0.01,0 Z"/><path d="M128,20 a10,10 0 0 1 10,10 v18 a10,10 0 0 1-20,0 V30 a10,10 0 0 1 10-10 Z M76,44 a10,10 0 0 1 14,2 l12,16 a10,10 0 1 1-16,12 L74,58 a10,10 0 0 1 2-14 Z M180,44 a10,10 0 0 1 2,14 l-12,16 a10,10 0 1 1-16-12 l12-16 a10,10 0 0 1 14-2 Z"/></svg>
